# xmcd
#
# Track frame offsets: 
#        150
#        5497
#        22345
#        40216
#        59145
#        79273
#        86062
#        96354
#        114729
#        129940
#        148360
#        163069
#
# Disc length: 2344 seconds
#
# Revision: 0
# Processed by: cddbd v1.5.2PL0 Copyright (c) Steve Scherf et al.
# Submitted via: ExactAudioCopyFreeDBPlugin 1.0
#
DISCID=b009260c
DTITLE=Teyana Taylor - VII  (Clean)
DYEAR=2014
DGENRE=R&B
TTITLE0=Outta My League (Interlude)
TTITLE1=Just Different
TTITLE2=Request
TTITLE3=Do Not Disturb (ft Chris Brown)
TTITLE4=Broken Hearted Girl (ft Fabolous)
TTITLE5=It Could Just Be Love (Interlude)
TTITLE6=Put Your Love On
TTITLE7=Maybe (ft Pusha T, Yo Gotti)
TTITLE8=Dreams
TTITLE9=Sorry
TTITLE10=Business
TTITLE11=In The Air
EXTD=
EXTT0=
EXTT1=
EXTT2=
EXTT3=
EXTT4=
EXTT5=
EXTT6=
EXTT7=
EXTT8=
EXTT9=
EXTT10=
EXTT11=
PLAYORDER=
